<svg id="1f56f57b-864b-4957-a9f3-a8f0e03c62ee" data-name="Layer 1" xmlns="http://www.w3.org/2000/svg" viewBox="0 0 50 40"><title>48x38-icons</title><rect x="1" y="1" width="25.27" height="31.77" rx="2.27" ry="2.27" style="fill:none;stroke:#777;stroke-miterlimit:10"/><line x1="11.28" y1="4.27" x2="15.99" y2="4.27" style="fill:none;stroke:#777;stroke-linecap:round;stroke-linejoin:round"/><path d="M13.63,27.39a1,1,0,1,1-1,1,1,1,0,0,1,1-1m0-1a2,2,0,1,0,2,2,2,2,0,0,0-2-2Z" style="fill:#777"/><rect x="1" y="6.42" width="25.27" height="18.33" style="fill:none;stroke:#777;stroke-miterlimit:10"/><rect x="32.06" y="1" width="16.94" height="31.77" rx="2.27" ry="2.27" style="fill:none;stroke:#777;stroke-miterlimit:10"/><line x1="38.17" y1="4.26" x2="42.89" y2="4.26" style="fill:none;stroke:#777;stroke-linecap:round;stroke-linejoin:round"/><path d="M40.53,27.39a1,1,0,1,1-1,1,1,1,0,0,1,1-1m0-1a2,2,0,1,0,2,2,2,2,0,0,0-2-2Z" style="fill:#777"/><rect x="32.06" y="6.42" width="16.94" height="18.33" style="fill:none;stroke:#777;stroke-miterlimit:10"/><line x1="13.71" y1="34.44" x2="13.71" y2="39" style="fill:none;stroke:#777;stroke-linecap:round;stroke-linejoin:round"/><line x1="49" y1="39" x2="1.26" y2="39" style="fill:none;stroke:#777;stroke-linecap:round;stroke-linejoin:round"/><line x1="40.53" y1="34.44" x2="40.53" y2="39" style="fill:none;stroke:#777;stroke-linecap:round;stroke-linejoin:round"/></svg>