<?xml version="1.0" encoding="utf-8"?>
<!-- Generator: Adobe Illustrator 22.1.0, SVG Export Plug-In . SVG Version: 6.00 Build 0)  -->
<svg version="1.1" id="_x39_e7ee45d-8031-4fd0-a69b-6bbbe6570359"
	 xmlns="http://www.w3.org/2000/svg" xmlns:xlink="http://www.w3.org/1999/xlink" x="0px" y="0px" viewBox="0 0 50 40"
	 style="enable-background:new 0 0 50 40;" xml:space="preserve">
<style type="text/css">
	.st0{fill:none;stroke:#777777;stroke-miterlimit:10;}
</style>
<title>48x38-icons</title>
<path class="st0" d="M25.5,24.2v-21c0-1.2,1-2.2,2.2-2.2c0,0,0,0,0,0h19C48,1,49,1.9,49,3.1c0,0,0,0,0,0.1v33.4c0,1.7,0,2.3-2.5,2.4
	l-14.1,0"/>
<line class="st0" x1="33.9" y1="3.6" x2="40.5" y2="3.6"/>
<line class="st0" x1="49" y1="6.4" x2="25.5" y2="6.4"/>
<polyline class="st0" points="40.5,24.7 45.7,24.8 45.7,16.9 29.1,16.9 29.1,21.6 "/>
<rect x="29.1" y="9.9" class="st0" width="16.6" height="3.9"/>
<path class="st0" d="M1,26.7c-0.1-6.8,5.4-12.3,12.1-12.4c6.1-0.1,11.4,4.4,12.3,10.5c2.8-4.1,8.5-5.2,12.6-2.4s5.2,8.5,2.4,12.6
	c-1.7,2.5-4.5,4-7.5,4H13.2C6.4,38.9,1,33.4,1,26.7z"/>
</svg>
